HIERARCHY
ROOT Hips
{
    OFFSET   0.000000   0.000000   0.000000
    CHANNELS 6 Xposition Yposition Zposition Zrotation Xrotation Yrotation
    JOINT Chest
    {
        OFFSET   0.000000   8.007230   0.000000
        CHANNELS 3 Zrotation Xrotation Yrotation
        JOINT Chest2
        {
            OFFSET   0.000000  22.077100   0.000000
            CHANNELS 3 Zrotation Xrotation Yrotation
            JOINT Neck
            {
                OFFSET   0.000000  23.254800  -0.000021
                CHANNELS 3 Zrotation Xrotation Yrotation
                JOINT Head
                {
                    OFFSET   0.000000  14.370000   1.956610
                    CHANNELS 3 Zrotation Xrotation Yrotation
                    End Site
                    {
                        OFFSET   0.000000  19.566000   0.000000
                    }
                }
            }
            JOINT LeftCollar
            {
                OFFSET   3.911900  19.017000  -0.467063
                CHANNELS 3 Zrotation Xrotation Yrotation
                JOINT LeftShoulder
                {
                    OFFSET  10.383700   0.000000   0.000000
                    CHANNELS 3 Zrotation Xrotation Yrotation
                    JOINT LeftElbow
                    {
                        OFFSET  26.662100   0.001529   0.000325
                        CHANNELS 3 Zrotation Xrotation Yrotation
                        JOINT LeftWrist
                        {
                            OFFSET  28.869000  -0.000011  -0.000096
                            CHANNELS 3 Zrotation Xrotation Yrotation
                            JOINT LeftFinger0
                            {
                                OFFSET   2.044650  -2.323460   3.252850
                                CHANNELS 3 Zrotation Xrotation Yrotation
                                JOINT LeftFinger01
                                {
                                    OFFSET   3.088130   0.000000   0.000000
                                    CHANNELS 3 Zrotation Xrotation Yrotation
                                    JOINT LeftFinger02
                                    {
                                        OFFSET   2.639460   0.000000   0.000000
                                        CHANNELS 3 Zrotation Xrotation Yrotation
                                        End Site
                                        {
                                            OFFSET   2.582190   0.000000   0.000000
                                        }
                                    }
                                }
                            }
                            JOINT LeftFinger1
                            {
                                OFFSET   8.364480   0.000000   3.252850
                                CHANNELS 3 Zrotation Xrotation Yrotation
                                JOINT LeftFinger11
                                {
                                    OFFSET   4.646930   0.000000   0.000000
                                    CHANNELS 3 Zrotation Xrotation Yrotation
                                    JOINT LeftFinger12
                                    {
                                        OFFSET   2.323460   0.000000   0.000000
                                        CHANNELS 3 Zrotation Xrotation Yrotation
                                        End Site
                                        {
                                            OFFSET   2.273050   0.000000   0.000000
                                        }
                                    }
                                }
                            }
                            JOINT LeftFinger2
                            {
                                OFFSET   8.364480   0.000016   1.078090
                                CHANNELS 3 Zrotation Xrotation Yrotation
                                JOINT LeftFinger21
                                {
                                    OFFSET   5.111620   0.000000   0.000000
                                    CHANNELS 3 Zrotation Xrotation Yrotation
                                    JOINT LeftFinger22
                                    {
                                        OFFSET   2.788160   0.000017   0.000000
                                        CHANNELS 3 Zrotation Xrotation Yrotation
                                        End Site
                                        {
                                            OFFSET   2.727660   0.000000   0.000000
                                        }
                                    }
                                }
                            }
                            JOINT LeftFinger3
                            {
                                OFFSET   7.899780   0.000015  -1.078090
                                CHANNELS 3 Zrotation Xrotation Yrotation
                                JOINT LeftFinger31
                                {
                                    OFFSET   4.646920   0.000000   0.000000
                                    CHANNELS 3 Zrotation Xrotation Yrotation
                                    JOINT LeftFinger32
                                    {
                                        OFFSET   2.323470   0.000000   0.000000
                                        CHANNELS 3 Zrotation Xrotation Yrotation
                                        End Site
                                        {
                                            OFFSET   2.273050   0.000000   0.000000
                                        }
                                    }
                                }
                            }
                            JOINT LeftFinger4
                            {
                                OFFSET   7.435090   0.000000  -3.252850
                                CHANNELS 3 Zrotation Xrotation Yrotation
                                JOINT LeftFinger41
                                {
                                    OFFSET   3.717550   0.000000   0.000000
                                    CHANNELS 3 Zrotation Xrotation Yrotation
                                    JOINT LeftFinger42
                                    {
                                        OFFSET   1.858760   0.000000   0.000000
                                        CHANNELS 3 Zrotation Xrotation Yrotation
                                        End Site
                                        {
                                            OFFSET   1.818440   0.000000   0.000000
                                        }
                                    }
                                }
                            }
                        }
                    }
                }
            }
            JOINT RightCollar
            {
                OFFSET  -3.911900  19.017000  -0.467062
                CHANNELS 3 Zrotation Xrotation Yrotation
                JOINT RightShoulder
                {
                    OFFSET -10.383700   0.000015   0.000000
                    CHANNELS 3 Zrotation Xrotation Yrotation
                    JOINT RightElbow
                    {
                        OFFSET -26.662100   0.001341   0.000385
                        CHANNELS 3 Zrotation Xrotation Yrotation
                        JOINT RightWrist
                        {
                            OFFSET -28.869000   0.000025  -0.000080
                            CHANNELS 3 Zrotation Xrotation Yrotation
                            JOINT RightFinger0
                            {
                                OFFSET  -2.044650  -2.323490   3.252850
                                CHANNELS 3 Zrotation Xrotation Yrotation
                                JOINT RightFinger01
                                {
                                    OFFSET  -3.088130   0.000000   0.000000
                                    CHANNELS 3 Zrotation Xrotation Yrotation
                                    JOINT RightFinger02
                                    {
                                        OFFSET  -2.639460   0.000000   0.000000
                                        CHANNELS 3 Zrotation Xrotation Yrotation
                                        End Site
                                        {
                                            OFFSET  -2.582190   0.000000   0.000000
                                        }
                                    }
                                }
                            }
                            JOINT RightFinger1
                            {
                                OFFSET  -8.364480   0.000000   3.252850
                                CHANNELS 3 Zrotation Xrotation Yrotation
                                JOINT RightFinger11
                                {
                                    OFFSET  -4.646930   0.000000   0.000000
                                    CHANNELS 3 Zrotation Xrotation Yrotation
                                    JOINT RightFinger12
                                    {
                                        OFFSET  -2.323470   0.000000   0.000000
                                        CHANNELS 3 Zrotation Xrotation Yrotation
                                        End Site
                                        {
                                            OFFSET  -2.273050   0.000000   0.000000
                                        }
                                    }
                                }
                            }
                            JOINT RightFinger2
                            {
                                OFFSET  -8.364480   0.000000   1.078090
                                CHANNELS 3 Zrotation Xrotation Yrotation
                                JOINT RightFinger21
                                {
                                    OFFSET  -5.111610   0.000000   0.000000
                                    CHANNELS 3 Zrotation Xrotation Yrotation
                                    JOINT RightFinger22
                                    {
                                        OFFSET  -2.788160   0.000000   0.000000
                                        CHANNELS 3 Zrotation Xrotation Yrotation
                                        End Site
                                        {
                                            OFFSET  -2.727660   0.000000   0.000000
                                        }
                                    }
                                }
                            }
                            JOINT RightFinger3
                            {
                                OFFSET  -7.899780   0.000000  -1.078090
                                CHANNELS 3 Zrotation Xrotation Yrotation
                                JOINT RightFinger31
                                {
                                    OFFSET  -4.646920   0.000000   0.000000
                                    CHANNELS 3 Zrotation Xrotation Yrotation
                                    JOINT RightFinger32
                                    {
                                        OFFSET  -2.323470   0.000000   0.000000
                                        CHANNELS 3 Zrotation Xrotation Yrotation
                                        End Site
                                        {
                                            OFFSET  -2.273050   0.000000   0.000000
                                        }
                                    }
                                }
                            }
                            JOINT RightFinger4
                            {
                                OFFSET  -7.435090   0.000000  -3.252850
                                CHANNELS 3 Zrotation Xrotation Yrotation
                                JOINT RightFinger41
                                {
                                    OFFSET  -3.717550   0.000000   0.000000
                                    CHANNELS 3 Zrotation Xrotation Yrotation
                                    JOINT RightFinger42
                                    {
                                        OFFSET  -1.858770   0.000000   0.000000
                                        CHANNELS 3 Zrotation Xrotation Yrotation
                                        End Site
                                        {
                                            OFFSET  -1.818440   0.000000   0.000000
                                        }
                                    }
                                }
                            }
                        }
                    }
                }
            }
        }
    }
    JOINT LeftHip
    {
        OFFSET   9.783010   0.000000   0.000000
        CHANNELS 3 Zrotation Xrotation Yrotation
        JOINT LeftKnee
        {
            OFFSET   0.000070 -41.789100   0.000028
            CHANNELS 3 Zrotation Xrotation Yrotation
            JOINT LeftAnkle
            {
                OFFSET   0.000087 -41.133200  -0.000100
                CHANNELS 3 Zrotation Xrotation Yrotation
                JOINT LeftToe
                {
                    OFFSET   0.000000  -6.358960  14.674500
                    CHANNELS 3 Zrotation Xrotation Yrotation
                    End Site
                    {
                        OFFSET   0.000000   0.000000   3.913200
                    }
                }
            }
        }
    }
    JOINT RightHip
    {
        OFFSET  -9.783020   0.000000   0.000000
        CHANNELS 3 Zrotation Xrotation Yrotation
        JOINT RightKnee
        {
            OFFSET   0.000044 -41.789100  -0.000870
            CHANNELS 3 Zrotation Xrotation Yrotation
            JOINT RightAnkle
            {
                OFFSET  -0.000090 -41.133200  -0.000245
                CHANNELS 3 Zrotation Xrotation Yrotation
                JOINT RightToe
                {
                    OFFSET   0.000000  -6.358960  14.674500
                    CHANNELS 3 Zrotation Xrotation Yrotation
                    End Site
                    {
                        OFFSET   0.000000   0.000000   3.913200
                    }
                }
            }
        }
    }
}
MOTION
Frames: 5
Frame Time:   0.016667
 -0.756460  89.509100  -0.980062  -0.881244  -2.572870   1.491920   0.552983   2.252760   0.193104   1.099640   4.507280   0.364836  -1.302440   1.509890   0.044742  -2.147980   3.044100   3.384230  -1.409220   4.322000   9.181190 -80.630700   7.321020   1.821180   0.187406   0.793085 -14.122000   7.799790 -13.102000  -4.247770  36.683500  23.563800 -47.193600 -30.628200   0.000816   0.000501 -10.314100   0.000872   0.000000 -29.867300   0.025089  -0.043703 -24.436900  -0.001031  -0.001166 -17.105800   0.001499  -0.000364 -28.559600  -3.727060   6.808200 -41.812600   0.001752  -0.000275 -27.847200   0.000000  -0.000234 -27.546800  -3.818620   7.275840 -30.730700   0.001475   0.000246 -20.466700   0.000175   0.000264 -31.203100  -4.865750   7.971820 -47.313500   0.001515   0.000403 -31.510800  -0.000302   0.000144   4.903550   5.144310   3.257220  75.067900  -9.514360  -3.462830   4.455760  -6.424660  12.923200 -22.425500  -2.242190   5.477690 -38.910000  28.620600  67.688300  24.627600   0.000742  -0.000246   7.313820   0.002802  -0.002067  26.316200   0.120036   0.242813  21.531700  -0.006963   0.004284  15.072100  -0.003811  -0.004949  27.836300  -0.064661  -0.122362  30.992800  -0.006213   0.001288  20.641200  -0.002432   0.005015  28.423800  -0.853167  -1.601080  35.465000  -0.001727   0.000481  23.619600   0.004787   0.000481  33.579200  -1.211500  -1.824090  50.397800  -0.004419  -0.000290  33.564900   0.002065   0.003331   3.565080   3.349220   0.168278  -0.304898   0.658519  13.346200  -2.981440  -1.079670   0.350912  -0.000000   0.000000   0.000000  -0.584942   2.076100  -4.802600  -0.922145   3.552920 -13.980500   3.335270  -2.921410   1.694760  -0.000000   0.000000   0.000000
 -0.756490  89.509200  -0.963868  -0.880671  -2.580870   1.500280   0.552843   2.258380   0.196356   1.099230   4.518530   0.371278  -1.307290   1.509880   0.044704  -2.154080   3.048170   3.383610  -1.414580   4.317310   9.184420 -80.630400   7.328060   1.816640   0.190555   0.804649 -14.138600   7.776150 -13.107900  -4.283240  36.691600  23.571600 -47.236200 -30.614700   0.000803   0.000520 -10.307400   0.000876  -0.000000 -29.886700   0.039778  -0.069198 -24.452800  -0.001014  -0.001153 -17.116900   0.001506  -0.000355 -28.563500  -3.710920   6.778300 -41.851200   0.001762  -0.000269 -27.873000   0.000000  -0.000220 -27.551500  -3.800540   7.239360 -30.756300   0.001481   0.000250 -20.483700   0.000194   0.000274 -31.229200  -4.849040   7.936050 -47.349000   0.001525   0.000421 -31.534500  -0.000291   0.000162   4.898850   5.136640   3.257570  75.069300  -9.499410  -3.462670   4.449180  -6.413910  12.942000 -22.414800  -2.271680   5.491790 -38.900600  28.603300  67.681400  24.616800   0.000733  -0.000254   7.308450   0.002809  -0.002058  26.350700   0.124890   0.252239  21.559900  -0.006963   0.004287  15.091900  -0.003810  -0.004954  27.844200  -0.062958  -0.119123  31.039200  -0.006213   0.001276  20.672100  -0.002430   0.005018  28.428100  -0.853266  -1.596620  35.508300  -0.001701   0.000471  23.648500   0.004788   0.000475  33.587800  -1.206930  -1.816620  50.410400  -0.004421  -0.000297  33.573300   0.002068   0.003331   3.565250   3.363650   0.164480  -0.303936   0.665027  13.351000  -2.982870  -1.091520   0.340519   0.000000   0.000000   0.000000  -0.584106   2.100720  -4.801270  -0.919612   3.550010 -13.997700   3.317590  -2.906790   1.694310   0.000000   0.000000   0.000000
 -0.756569  89.509300  -0.935685  -0.879489  -2.598730   1.516630   0.552682   2.269850   0.199609   1.098730   4.541520   0.377727  -1.316630   1.509880   0.044621  -2.167030   3.056720   3.381090  -1.425340   4.308900   9.190860 -80.629300   7.348590   1.802800   0.195385   0.822050 -14.168400   7.743340 -13.113700  -4.333240  36.705700  23.595600 -47.296600 -30.597300   0.000768   0.000538 -10.298700   0.000885  -0.000000 -29.906100   0.054468  -0.094692 -24.468600  -0.000972  -0.001117 -17.128000   0.001524  -0.000326 -28.567500  -3.694770   6.748400 -41.889900   0.001783  -0.000251 -27.898700   0.000000  -0.000185 -27.556600  -3.780240   7.199320 -30.781800   0.001493   0.000261 -20.500700   0.000242   0.000300 -31.256200  -4.828810   7.895930 -47.384500   0.001545   0.000463 -31.558100  -0.000266   0.000207   4.888730   5.121550   3.257880  75.075400  -9.462330  -3.462290   4.434130  -6.402540  12.985300 -22.392800  -2.322310   5.513340 -38.895900  28.575900  67.684300  24.595700   0.000709  -0.000261   7.297860   0.002822  -0.002050  26.407700   0.134354   0.270676  21.606600  -0.006961   0.004291  15.124600  -0.003809  -0.004966  27.858100  -0.059345  -0.112251  31.120800  -0.006211   0.001246  20.726500  -0.002426   0.005029  28.436200  -0.853366  -1.588380  35.590000  -0.001638   0.000450  23.702900   0.004791   0.000461  33.607900  -1.198910  -1.803170  50.440200  -0.004425  -0.000310  33.593100   0.002076   0.003330   3.565530   3.397070   0.157907  -0.303029   0.671522  13.360400  -2.984480  -1.109510   0.319151  -0.000000   0.000000   0.000000  -0.582547   2.135090  -4.797470  -0.916427   3.546940 -14.025500   3.292130  -2.885030   1.691270   0.000000   0.000000  -0.000000
 -0.756697  89.508800  -0.910697  -0.878055  -2.622440   1.535100   0.552579   2.283710   0.199496   1.098480   4.569230   0.377474  -1.325620   1.512150   0.044502  -2.181470   3.063740   3.374080  -1.438330   4.301910   9.198430 -80.635300   7.382770   1.777980   0.198978   0.833871 -14.197200   7.731710 -13.098400  -4.352940  36.725500  23.649300 -47.333900 -30.594700   0.000710   0.000501 -10.297300   0.000900  -0.000000 -29.904900   0.044717  -0.077749 -24.467700  -0.000909  -0.001058 -17.127300   0.001553  -0.000273 -28.567600  -3.695000   6.748830 -41.886500   0.001811  -0.000220 -27.896500   0.000038  -0.000132 -27.556700  -3.778770   7.196950 -30.773400   0.001510   0.000277 -20.495100   0.000313   0.000340 -31.253600  -4.825300   7.891840 -47.379800   0.001570   0.000521 -31.555000  -0.000230   0.000276   4.876040   5.104530   3.254970  75.091900  -9.407610  -3.456850   4.414810  -6.409050  13.042300 -22.369700  -2.369240   5.526090 -38.885700  28.557000  67.719300  24.573800   0.000666  -0.000235   7.286890   0.002835  -0.002056  26.451500   0.144736   0.291040  21.642400  -0.006955   0.004294  15.149700  -0.003803  -0.004980  27.870600  -0.054769  -0.103537  31.195000  -0.006203   0.001200  20.775900  -0.002420   0.005051  28.444400  -0.853133  -1.580010  35.674900  -0.001544   0.000420  23.759500   0.004795   0.000437  33.635200  -1.192310  -1.791350  50.480700  -0.004432  -0.000327  33.620200   0.002087   0.003328   3.565790   3.444550   0.151403  -0.303294   0.659357  13.372000  -2.984770  -1.119470   0.293033  -0.000000   0.000000  -0.000000  -0.580447   2.142340  -4.791610  -0.916193   3.584860 -14.045900   3.281790  -2.874600   1.680390   0.000000   0.000000   0.000000
 -0.756846  89.507500  -0.884151  -0.876352  -2.651770   1.555850   0.552497   2.299650   0.198694   1.098330   4.601100   0.375618  -1.338350   1.521210   0.044384  -2.202710   3.080030   3.369020  -1.452310   4.292250   9.206790 -80.641200   7.428870   1.746830   0.201111   0.839800 -14.227400   7.727940 -13.083400  -4.363790  36.739200  23.686800 -47.353400 -30.592100   0.000639   0.000445 -10.296000   0.000915  -0.000000 -29.903700   0.034967  -0.060807 -24.466700  -0.000832  -0.000982 -17.126600   0.001589  -0.000200 -28.567600  -3.695230   6.749260 -41.883200   0.001846  -0.000181 -27.894200   0.000106  -0.000068 -27.556900  -3.777300   7.194570 -30.765000   0.001531   0.000297 -20.489500   0.000401   0.000388 -31.250500  -4.824130   7.890120 -47.375100   0.001602   0.000592 -31.551800  -0.000185   0.000363   4.860870   5.084960   3.249930  75.120400  -9.337430  -3.444610   4.387070  -6.415010  13.120000 -22.335300  -2.411380   5.537280 -38.867100  28.539200  67.764800  24.544200   0.000616  -0.000198   7.272070   0.002855  -0.002068  26.497100   0.156917   0.314901  21.679800  -0.006946   0.004296  15.175900  -0.003794  -0.004999  27.883900  -0.049382  -0.093290  31.274900  -0.006190   0.001141  20.829100  -0.002412   0.005079  28.453600  -0.851483  -1.570800  35.772100  -0.001430   0.000384  23.824200   0.004799   0.000407  33.672000  -1.183960  -1.776330  50.535500  -0.004440  -0.000347  33.656700   0.002103   0.003324   3.565990   3.501120   0.146079  -0.305068   0.639773  13.383600  -2.984140  -1.128730   0.263110   0.000000   0.000000   0.000000  -0.578090   2.154030  -4.782750  -0.915930   3.622780 -14.066300   3.272520  -2.864320   1.662070   0.000000   0.000000   0.000000
